# xmcd
#
# Track frame offsets: 
#        150
#        18291
#        37064
#        54976
#        73326
#        95752
#        110574
#        126944
#        144581
#        166973
#        187867
#        206216
#        237057
#
# Disc length: 3177 seconds
#
# Revision: 2
# Processed by: cddbd v1.5.1PL2 Copyright (c) Steve Scherf et al.
# Submitted via: ExactAudioCopy v0.95a5
#
DISCID=bc0c670d
DTITLE=Shawn McDonald - Simply Nothing
DYEAR=2004
DGENRE=Christian Bands
TTITLE0=Take My Hand
TTITLE1=Gravity
TTITLE2=Hold On
TTITLE3=Simply Nothing
TTITLE4=Beautiful
TTITLE5=Don't Walk Away
TTITLE6=All I Need
TTITLE7=Take This Life
TTITLE8=Have You Ever?
TTITLE9=Here I Am
TTITLE10=Yahweh
TTITLE11=Open Me
TTITLE12=DATA
EXTD=
EXTT0=
EXTT1=
EXTT2=
EXTT3=
EXTT4=
EXTT5=
EXTT6=
EXTT7=
EXTT8=
EXTT9=
EXTT10=
EXTT11=
EXTT12=
PLAYORDER=
